<mxfile host="app.diagrams.net" modified="2024-02-11T22:20:56.876Z" agent="Mozilla/5.0 (Macintosh; Intel Mac OS X 10.15; rv:122.0) Gecko/20100101 Firefox/122.0" version="23.1.0" etag="gKm10mNgTQGkagj5c9aC" type="github">
  <diagram name="Page-1" id="sxSMr37jJeNGCaeWuKGh">
    <mxGraphModel>
      <root>
        <mxCell id="0" />
        <mxCell id="1" parent="0" />
      </root>
    </mxGraphModel>
  </diagram>
</mxfile>
